<svg width="127" height="14" viewBox="0 0 127 14" fill="none" xmlns="http://www.w3.org/2000/svg"><g id="floor" clip-path="url(#clip0_2_28630)" class="floor"><rect width="127" height="14" fill="white"/>


<rect id="E310" y="7" width="6" height="3" fill="#F1A56E" stroke="black" stroke-width="0.2" class="E310"/>


<rect id="T300a" x="92" y="7" width="20" height="7" fill="#FF9345" stroke="black" stroke-width="0.2" class="T300a"/><rect id="E305" x="112" y="7" width="10" height="3" fill="#F1A56E" stroke="black" stroke-width="0.2" class="E305"/><rect id="T304" x="122" y="7" width="5" height="7" fill="#FF9345" stroke="black" stroke-width="0.2" class="T304"/><rect id="3208" x="100" width="3" height="7" fill="#B4EC83" stroke="black" stroke-width="0.2" class="3208"/><rect id="3200" x="112" y="10" width="3" height="4" fill="#D9D9D9" stroke="black" stroke-width="0.2" class="3200"/><rect id="3201" x="115" y="10" width="3" height="4" fill="#D9D9D9" stroke="black" stroke-width="0.2" class="3201"/><rect id="3202" x="118" y="10" width="2" height="4" fill="#D9D9D9" stroke="black" stroke-width="0.2" class="3202"/><rect id="3203" x="120" y="10" width="2" height="4" fill="#D9D9D9" stroke="black" stroke-width="0.2" class="3203"/><rect id="3209" x="89" width="11" height="7" fill="#B4EC83" stroke="black" stroke-width="0.2" class="3209"/><rect id="3207" x="103" width="4" height="7" fill="#B4EC83" stroke="black" stroke-width="0.2" class="3207"/><rect id="3206" x="107" width="7" height="7" fill="#B4EC83" stroke="black" stroke-width="0.2" class="3206"/><rect id="3204" x="120" width="7" height="7" fill="#B4EC83" stroke="black" stroke-width="0.2" class="3204"/><rect id="3205" x="114" width="6" height="7" fill="#B4EC83" stroke="black" stroke-width="0.2" class="3205"/><rect id="3248" x="89" y="10" width="3" height="4" fill="#B4EC83" stroke="black" stroke-width="0.2" class="3248"/><rect id="E309" x="6" y="7" width="19" height="3" fill="#F1A56E" stroke="black" stroke-width="0.2" class="E309"/><rect id="E308" x="25" y="7" width="19" height="3" fill="#F1A56E" stroke="black" stroke-width="0.2" class="E308"/><rect id="T305" x="84" width="5" height="7" fill="#FF9345" stroke="black" stroke-width="0.2" class="T305"/><rect id="T307" x="45" y="10" width="5" height="4" fill="#FF9345" stroke="black" stroke-width="0.2" class="T307"/><rect id="T307_2" x="44" y="7" width="7" height="3" fill="#FF9345" stroke="black" stroke-width="0.2" class="T307"/><rect id="E307" x="51" y="7" width="22" height="3" fill="#F1A56E" stroke="black" stroke-width="0.2" class="E307"/><rect id="E306" x="73" y="7" width="19" height="3" fill="#F1A56E" stroke="black" stroke-width="0.2" class="E306"/><rect id="T306" width="5" height="7" fill="#FF9345" stroke="black" stroke-width="0.2" class="T306"/><rect id="3222" x="5" width="11" height="7" fill="#B4EC83" stroke="black" stroke-width="0.2" class="3222"/><rect id="3221" x="16" width="11" height="7" fill="#B4EC83" stroke="black" stroke-width="0.2" class="3221"/><rect id="3220" x="27" width="9" height="7" fill="#B4EC83" stroke="black" stroke-width="0.2" class="3220"/><rect id="3219" x="36" width="9" height="7" fill="#B4EC83" stroke="black" stroke-width="0.2" class="3219"/><rect id="3218" x="45" width="5" height="7" fill="#B4EC83" stroke="black" stroke-width="0.2" class="3218"/><rect id="3217" x="50" width="7" height="7" fill="#B4EC83" stroke="black" stroke-width="0.2" class="3217"/><rect id="3216" x="57" width="12" height="7" fill="#B4EC83" stroke="black" stroke-width="0.2" class="3216"/><rect id="3215" x="69" width="11" height="7" fill="#B4EC83" stroke="black" stroke-width="0.2" class="3215"/><rect id="3214" x="80" width="4" height="2" fill="#E52421" stroke="black" stroke-width="0.2" class="3214"/><rect id="3212" x="80" y="2" width="4" height="3" fill="#6EC6D9" stroke="black" stroke-width="0.2" class="3212"/><rect id="3210" x="80" y="5" width="4" height="2" fill="#6EC6D9" stroke="black" stroke-width="0.2" class="3210"/><rect id="3246" x="83" y="10" width="3" height="4" fill="#B4EC83" stroke="black" stroke-width="0.2" class="3246"/><rect id="3247" x="86" y="10" width="3" height="4" fill="#B4EC83" stroke="black" stroke-width="0.2" class="3247"/><rect id="3245" x="78" y="10" width="5" height="4" fill="#B4EC83" stroke="black" stroke-width="0.2" class="3245"/><rect id="3244" x="76" y="10" width="2" height="4" fill="#D9D9D9" stroke="black" stroke-width="0.2" class="3244"/><rect id="3243" x="72" y="10" width="4" height="4" fill="#B4EC83" stroke="black" stroke-width="0.2" class="3243"/><rect id="3242" x="69" y="10" width="3" height="4" fill="#D9D9D9" stroke="black" stroke-width="0.2" class="3242"/><rect id="3241" x="64" y="10" width="5" height="4" fill="#B4EC83" stroke="black" stroke-width="0.2" class="3241"/><rect id="3240" x="61" y="10" width="3" height="4" fill="#D9D9D9" stroke="black" stroke-width="0.2" class="3240"/><rect id="3239" x="54" y="10" width="7" height="4" fill="#D9D9D9" stroke="black" stroke-width="0.2" class="3239"/><rect id="3238" x="52" y="10" width="2" height="4" fill="#D9D9D9" stroke="black" stroke-width="0.2" class="3238"/><rect id="3237" x="50" y="10" width="2" height="4" fill="#D9D9D9" stroke="black" stroke-width="0.2" class="3237"/><rect id="3236" x="43" y="10" width="2" height="4" fill="#E52421" stroke="black" stroke-width="0.2" class="3236"/><rect id="3235" x="35" y="10" width="8" height="4" fill="#B4EC83" stroke="black" stroke-width="0.2" class="3235"/><rect id="3234" x="32" y="10" width="3" height="4" fill="#A6529A" stroke="black" stroke-width="0.2" class="3234"/><rect id="3233" x="29" y="10" width="3" height="4" fill="#A6529A" stroke="black" stroke-width="0.2" class="3233"/><rect id="3232" x="27" y="10" width="2" height="4" fill="#A6529A" stroke="black" stroke-width="0.2" class="3232"/><rect id="3231" x="24" y="10" width="3" height="4" fill="#A6529A" stroke="black" stroke-width="0.2" class="3231"/><rect id="3230" x="21" y="10" width="3" height="4" fill="#A6529A" stroke="black" stroke-width="0.2" class="3230"/><rect id="3229" x="18" y="10" width="3" height="4" fill="#A6529A" stroke="black" stroke-width="0.2" class="3229"/><rect id="3228" x="14" y="10" width="4" height="4" fill="#A6529A" stroke="black" stroke-width="0.2" class="3228"/><rect id="3227" x="11" y="10" width="3" height="4" fill="#A6529A" stroke="black" stroke-width="0.2" class="3227"/><rect id="3226" x="8" y="10" width="3" height="4" fill="#A6529A" stroke="black" stroke-width="0.2" class="3226"/><rect id="3225" x="6" y="10" width="2" height="4" fill="#A6529A" stroke="black" stroke-width="0.2" class="3225"/><rect id="3224" x="3" y="10" width="3" height="4" fill="#A6529A" stroke="black" stroke-width="0.2" class="3224"/><rect id="3223" y="10" width="3" height="4" fill="#D9D9D9" stroke="black" stroke-width="0.2" class="3223"/>

</g><defs><clipPath id="clip0_2_28630" class="clip0_2"><rect width="127" height="14" fill="white"/></clipPath></defs></svg>