{
  "asset": { "generator": "Khronos glTF Spline I/O v0.0.1", "version": "2.0" },
  "scenes": [{ "nodes": [0] }],
  "nodes": [
    { "name": "", "children": [1, 2, 3, 4, 5, 6], "matrix": [0.01, 0, 0, 0, 0, 0.01, 0, 0, 0, 0, 0.01, 0, 0, 0, 0, 1] },
    {
      "name": "",
      "camera": 0,
      "translation": [-332.96483474032493, 3370.090823395331, -398.4861929074776],
      "rotation": [-0.09856439047254374, 0.7518268280372019, 0.641641230143429, 0.11549031714530428]
    },
    {
      "name": "Plane",
      "matrix": [
        0, -3.3306690738754696e-16, 1.0000000000000004, 0, 1.0000000000000004, -4.440892098500626e-16,
        -3.3306690738754696e-16, 0, 1.1102230246251565e-16, 1.0000000000000004, 0, 0, -199.99999999999974,
        -2.27373675443232e-13, 150.00000000000014, 1
      ],
      "mesh": 0
    },
    {
      "name": "Cube",
      "matrix": [
        0, -3.3306690738754696e-16, 1.0000000000000004, 0, 1.0000000000000004, -4.440892098500626e-16,
        -3.3306690738754696e-16, 0, 1.1102230246251565e-16, 1.0000000000000004, 0, 0, -199.99999999999983,
        100.0000000000001, 12.499999999999545, 1
      ],
      "mesh": 1
    },
    {
      "name": "Cube 2",
      "matrix": [
        0, -3.330669073875476e-16, 1.0000000000000024, 0, 1.0000000000000004, -4.440892098500626e-16,
        -3.3306690738754696e-16, 0, 1.0850796044086242e-16, 0.9773528204164015, 0, 0, -199.99999999999977,
        102.26471795836, 287.5000000000002, 1
      ],
      "mesh": 2
    },
    {
      "name": "Cube 3",
      "matrix": [
        1, 7.395570986446986e-32, -2.2204460492503136e-16, 0, -2.2204460492503175e-16, 2.2204460492503175e-16,
        -1.0000000000000022, 0, 9.723461371658034e-63, 0.9773528204164013, 2.1701592088172484e-16, 0,
        -25.000000000000114, 102.26471795835991, 149.99999999999983, 1
      ],
      "mesh": 3
    },
    {
      "name": "Cube 4",
      "matrix": [
        1, 7.395570986446986e-32, -2.2204460492503136e-16, 0, -2.220446049250313e-16, 2.220446049250313e-16,
        -1.0000000000000002, 0, 9.723461371658034e-63, 1.0000000000000002, 2.220446049250313e-16, 0, -375,
        100.00000000000004, 150.00000000000003, 1
      ],
      "mesh": 4
    }
  ],
  "cameras": [
    {
      "type": "perspective",
      "perspective": { "aspectRatio": 1.6457142857142857, "yfov": 0.7853981633974483, "znear": 5, "zfar": 100000 }
    }
  ],
  "meshes": [
    { "primitives": [{ "attributes": { "POSITION": 1, "NORMAL": 2, "TEXCOORD_0": 3 }, "indices": 0 }] },
    { "primitives": [{ "attributes": { "POSITION": 5, "NORMAL": 6, "TEXCOORD_0": 7 }, "indices": 4 }] },
    { "primitives": [{ "attributes": { "POSITION": 9, "NORMAL": 10, "TEXCOORD_0": 11 }, "indices": 8 }] },
    { "primitives": [{ "attributes": { "POSITION": 13, "NORMAL": 14, "TEXCOORD_0": 15 }, "indices": 12 }] },
    { "primitives": [{ "attributes": { "POSITION": 17, "NORMAL": 18, "TEXCOORD_0": 19 }, "indices": 16 }] }
  ],
  "buffers": [
    {
      "uri": "data:application/octet-stream;base64,",
      "byteLength": 3360
    },
    {
      "uri": "data:application/octet-stream;base64,",
      "byteLength": 840
    },
    {
      "uri": "data:application/octet-stream;base64,",
      "byteLength": 840
    },
    {
      "uri": "data:application/octet-stream;base64,",
      "byteLength": 840
    },
    {
      "uri": "data:application/octet-stream;base64,",
      "byteLength": 840
    }
  ],
  "bufferViews": [
    { "buffer": 0, "byteOffset": 0, "byteLength": 768, "target": 34963 },
    { "buffer": 0, "byteOffset": 768, "byteLength": 972, "target": 34962 },
    { "buffer": 0, "byteOffset": 1740, "byteLength": 972, "target": 34962 },
    { "buffer": 0, "byteOffset": 2712, "byteLength": 648, "target": 34962 },
    { "buffer": 1, "byteOffset": 0, "byteLength": 72, "target": 34963 },
    { "buffer": 1, "byteOffset": 72, "byteLength": 288, "target": 34962 },
    { "buffer": 1, "byteOffset": 360, "byteLength": 288, "target": 34962 },
    { "buffer": 1, "byteOffset": 648, "byteLength": 192, "target": 34962 },
    { "buffer": 2, "byteOffset": 0, "byteLength": 72, "target": 34963 },
    { "buffer": 2, "byteOffset": 72, "byteLength": 288, "target": 34962 },
    { "buffer": 2, "byteOffset": 360, "byteLength": 288, "target": 34962 },
    { "buffer": 2, "byteOffset": 648, "byteLength": 192, "target": 34962 },
    { "buffer": 3, "byteOffset": 0, "byteLength": 72, "target": 34963 },
    { "buffer": 3, "byteOffset": 72, "byteLength": 288, "target": 34962 },
    { "buffer": 3, "byteOffset": 360, "byteLength": 288, "target": 34962 },
    { "buffer": 3, "byteOffset": 648, "byteLength": 192, "target": 34962 },
    { "buffer": 4, "byteOffset": 0, "byteLength": 72, "target": 34963 },
    { "buffer": 4, "byteOffset": 72, "byteLength": 288, "target": 34962 },
    { "buffer": 4, "byteOffset": 360, "byteLength": 288, "target": 34962 },
    { "buffer": 4, "byteOffset": 648, "byteLength": 192, "target": 34962 }
  ],
  "accessors": [
    {
      "bufferView": 0,
      "byteOffset": 0,
      "componentType": 5123,
      "count": 384,
      "type": "SCALAR",
      "min": [0],
      "max": [80]
    },
    {
      "bufferView": 1,
      "byteOffset": 0,
      "componentType": 5126,
      "count": 81,
      "type": "VEC3",
      "min": [-150, -200, 0],
      "max": [150, 200, 0]
    },
    {
      "bufferView": 2,
      "byteOffset": 0,
      "componentType": 5126,
      "count": 81,
      "type": "VEC3",
      "min": [0, 0, 1],
      "max": [0, 0, 1]
    },
    {
      "bufferView": 3,
      "byteOffset": 0,
      "componentType": 5126,
      "count": 81,
      "type": "VEC2",
      "min": [0, 0],
      "max": [1, 1]
    },
    { "bufferView": 4, "byteOffset": 0, "componentType": 5123, "count": 36, "type": "SCALAR", "min": [0], "max": [23] },
    {
      "bufferView": 5,
      "byteOffset": 0,
      "componentType": 5126,
      "count": 24,
      "type": "VEC3",
      "min": [-12.5, -200, -100],
      "max": [12.5, 200, 100]
    },
    {
      "bufferView": 6,
      "byteOffset": 0,
      "componentType": 5126,
      "count": 24,
      "type": "VEC3",
      "min": [-1, -1, -1],
      "max": [1, 1, 1]
    },
    {
      "bufferView": 7,
      "byteOffset": 0,
      "componentType": 5126,
      "count": 24,
      "type": "VEC2",
      "min": [0, 0],
      "max": [1, 1]
    },
    { "bufferView": 8, "byteOffset": 0, "componentType": 5123, "count": 36, "type": "SCALAR", "min": [0], "max": [23] },
    {
      "bufferView": 9,
      "byteOffset": 0,
      "componentType": 5126,
      "count": 24,
      "type": "VEC3",
      "min": [-12.5, -200, -100],
      "max": [12.5, 200, 100]
    },
    {
      "bufferView": 10,
      "byteOffset": 0,
      "componentType": 5126,
      "count": 24,
      "type": "VEC3",
      "min": [-1, -1, -1],
      "max": [1, 1, 1]
    },
    {
      "bufferView": 11,
      "byteOffset": 0,
      "componentType": 5126,
      "count": 24,
      "type": "VEC2",
      "min": [0, 0],
      "max": [1, 1]
    },
    {
      "bufferView": 12,
      "byteOffset": 0,
      "componentType": 5123,
      "count": 36,
      "type": "SCALAR",
      "min": [0],
      "max": [23]
    },
    {
      "bufferView": 13,
      "byteOffset": 0,
      "componentType": 5126,
      "count": 24,
      "type": "VEC3",
      "min": [-25, -150, -100],
      "max": [25, 150, 100]
    },
    {
      "bufferView": 14,
      "byteOffset": 0,
      "componentType": 5126,
      "count": 24,
      "type": "VEC3",
      "min": [-1, -1, -1],
      "max": [1, 1, 1]
    },
    {
      "bufferView": 15,
      "byteOffset": 0,
      "componentType": 5126,
      "count": 24,
      "type": "VEC2",
      "min": [0, 0],
      "max": [1, 1]
    },
    {
      "bufferView": 16,
      "byteOffset": 0,
      "componentType": 5123,
      "count": 36,
      "type": "SCALAR",
      "min": [0],
      "max": [23]
    },
    {
      "bufferView": 17,
      "byteOffset": 0,
      "componentType": 5126,
      "count": 24,
      "type": "VEC3",
      "min": [-25, -150, -100],
      "max": [25, 150, 100]
    },
    {
      "bufferView": 18,
      "byteOffset": 0,
      "componentType": 5126,
      "count": 24,
      "type": "VEC3",
      "min": [-1, -1, -1],
      "max": [1, 1, 1]
    },
    {
      "bufferView": 19,
      "byteOffset": 0,
      "componentType": 5126,
      "count": 24,
      "type": "VEC2",
      "min": [0, 0],
      "max": [1, 1]
    }
  ],
  "extensions": { "KHR_lights_punctual": { "lights": [] } },
  "extensionsUsed": ["KHR_lights_punctual"]
}
