{
  "asset": { "generator": "Khronos glTF Spline I/O v0.0.1", "version": "2.0" },
  "scenes": [{ "nodes": [0] }],
  "nodes": [
    { "name": "", "children": [1, 2, 3, 4, 5, 6], "matrix": [0.01, 0, 0, 0, 0, 0.01, 0, 0, 0, 0, 0.01, 0, 0, 0, 0, 1] },
    {
      "name": "",
      "camera": 0,
      "translation": [-3092.076615203835, 2156.2258736678177, -484.7745400551369],
      "rotation": [-0.16044354959273735, -0.774662048383115, -0.21738339107480464, 0.5717526033817228]
    },
    {
      "name": "Plane",
      "matrix": [
        2.220446049250313e-16, -2.220446049250313e-16, 1, 0, 1, 0, -2.220446049250313e-16, 0, 0, 1,
        2.220446049250313e-16, 0, -350.0000000000001, -1.3322676295501878e-13, 600, 1
      ],
      "mesh": 0
    },
    {
      "name": "Cube",
      "matrix": [
        0, -3.3306690738754696e-16, 1.0000000000000004, 0, 1.0000000000000004, -4.440892098500626e-16,
        -3.3306690738754696e-16, 0, 1.1102230246251565e-16, 1.0000000000000004, 0, 0, -350.00000000000017,
        100.00000000000007, 25, 1
      ],
      "mesh": 1
    },
    {
      "name": "Cube 2",
      "matrix": [
        0, -3.3306690738754696e-16, 1.0000000000000004, 0, 1.0000000000000004, -4.440892098500626e-16,
        -3.3306690738754696e-16, 0, 1.1102230246251565e-16, 1.0000000000000004, 0, 0, -349.99999999999983,
        99.99999999999973, 1174.9999999999998, 1
      ],
      "mesh": 2
    },
    {
      "name": "Cube 3",
      "matrix": [
        1, 2.465190328815662e-32, -1.5700924586837752e-16, 0, -1.5700924586837752e-16, 2.220446049250313e-16,
        -1.0000000000000002, 0, 2.465190328815662e-32, 1.0000000000000002, 2.220446049250313e-16, 0,
        -1.6778715761768427e-14, 100.00000000000016, 600, 1
      ],
      "mesh": 3
    },
    {
      "name": "Cube 4",
      "matrix": [
        1, 7.395570986446986e-32, -2.2204460492503136e-16, 0, -2.220446049250313e-16, 2.220446049250313e-16,
        -1.0000000000000002, 0, 0, 1.0000000000000002, 2.220446049250313e-16, 0, -675.0000000000001, 99.99999999999993,
        600, 1
      ],
      "mesh": 4
    }
  ],
  "cameras": [
    {
      "type": "perspective",
      "perspective": { "aspectRatio": 1.8090452261306533, "yfov": 0.7853981633974483, "znear": 5, "zfar": 100000 }
    }
  ],
  "meshes": [
    { "primitives": [{ "attributes": { "POSITION": 1, "NORMAL": 2, "TEXCOORD_0": 3 }, "indices": 0 }] },
    { "primitives": [{ "attributes": { "POSITION": 5, "NORMAL": 6, "TEXCOORD_0": 7 }, "indices": 4 }] },
    { "primitives": [{ "attributes": { "POSITION": 9, "NORMAL": 10, "TEXCOORD_0": 11 }, "indices": 8 }] },
    { "primitives": [{ "attributes": { "POSITION": 13, "NORMAL": 14, "TEXCOORD_0": 15 }, "indices": 12 }] },
    { "primitives": [{ "attributes": { "POSITION": 17, "NORMAL": 18, "TEXCOORD_0": 19 }, "indices": 16 }] }
  ],
  "buffers": [
    {
      "uri": "data:application/octet-stream;base64,",
      "byteLength": 3360
    },
    {
      "uri": "data:application/octet-stream;base64,",
      "byteLength": 840
    },
    {
      "uri": "data:application/octet-stream;base64,",
      "byteLength": 840
    },
    {
      "uri": "data:application/octet-stream;base64,",
      "byteLength": 840
    },
    {
      "uri": "data:application/octet-stream;base64,",
      "byteLength": 840
    }
  ],
  "bufferViews": [
    { "buffer": 0, "byteOffset": 0, "byteLength": 768, "target": 34963 },
    { "buffer": 0, "byteOffset": 768, "byteLength": 972, "target": 34962 },
    { "buffer": 0, "byteOffset": 1740, "byteLength": 972, "target": 34962 },
    { "buffer": 0, "byteOffset": 2712, "byteLength": 648, "target": 34962 },
    { "buffer": 1, "byteOffset": 0, "byteLength": 72, "target": 34963 },
    { "buffer": 1, "byteOffset": 72, "byteLength": 288, "target": 34962 },
    { "buffer": 1, "byteOffset": 360, "byteLength": 288, "target": 34962 },
    { "buffer": 1, "byteOffset": 648, "byteLength": 192, "target": 34962 },
    { "buffer": 2, "byteOffset": 0, "byteLength": 72, "target": 34963 },
    { "buffer": 2, "byteOffset": 72, "byteLength": 288, "target": 34962 },
    { "buffer": 2, "byteOffset": 360, "byteLength": 288, "target": 34962 },
    { "buffer": 2, "byteOffset": 648, "byteLength": 192, "target": 34962 },
    { "buffer": 3, "byteOffset": 0, "byteLength": 72, "target": 34963 },
    { "buffer": 3, "byteOffset": 72, "byteLength": 288, "target": 34962 },
    { "buffer": 3, "byteOffset": 360, "byteLength": 288, "target": 34962 },
    { "buffer": 3, "byteOffset": 648, "byteLength": 192, "target": 34962 },
    { "buffer": 4, "byteOffset": 0, "byteLength": 72, "target": 34963 },
    { "buffer": 4, "byteOffset": 72, "byteLength": 288, "target": 34962 },
    { "buffer": 4, "byteOffset": 360, "byteLength": 288, "target": 34962 },
    { "buffer": 4, "byteOffset": 648, "byteLength": 192, "target": 34962 }
  ],
  "accessors": [
    {
      "bufferView": 0,
      "byteOffset": 0,
      "componentType": 5123,
      "count": 384,
      "type": "SCALAR",
      "min": [0],
      "max": [80]
    },
    {
      "bufferView": 1,
      "byteOffset": 0,
      "componentType": 5126,
      "count": 81,
      "type": "VEC3",
      "min": [-600, -350, 0],
      "max": [600, 350, 0]
    },
    {
      "bufferView": 2,
      "byteOffset": 0,
      "componentType": 5126,
      "count": 81,
      "type": "VEC3",
      "min": [0, 0, 1],
      "max": [0, 0, 1]
    },
    {
      "bufferView": 3,
      "byteOffset": 0,
      "componentType": 5126,
      "count": 81,
      "type": "VEC2",
      "min": [0, 0],
      "max": [1, 1]
    },
    { "bufferView": 4, "byteOffset": 0, "componentType": 5123, "count": 36, "type": "SCALAR", "min": [0], "max": [23] },
    {
      "bufferView": 5,
      "byteOffset": 0,
      "componentType": 5126,
      "count": 24,
      "type": "VEC3",
      "min": [-25, -350, -100],
      "max": [25, 350, 100]
    },
    {
      "bufferView": 6,
      "byteOffset": 0,
      "componentType": 5126,
      "count": 24,
      "type": "VEC3",
      "min": [-1, -1, -1],
      "max": [1, 1, 1]
    },
    {
      "bufferView": 7,
      "byteOffset": 0,
      "componentType": 5126,
      "count": 24,
      "type": "VEC2",
      "min": [0, 0],
      "max": [1, 1]
    },
    { "bufferView": 8, "byteOffset": 0, "componentType": 5123, "count": 36, "type": "SCALAR", "min": [0], "max": [23] },
    {
      "bufferView": 9,
      "byteOffset": 0,
      "componentType": 5126,
      "count": 24,
      "type": "VEC3",
      "min": [-25, -350, -100],
      "max": [25, 350, 100]
    },
    {
      "bufferView": 10,
      "byteOffset": 0,
      "componentType": 5126,
      "count": 24,
      "type": "VEC3",
      "min": [-1, -1, -1],
      "max": [1, 1, 1]
    },
    {
      "bufferView": 11,
      "byteOffset": 0,
      "componentType": 5126,
      "count": 24,
      "type": "VEC2",
      "min": [0, 0],
      "max": [1, 1]
    },
    {
      "bufferView": 12,
      "byteOffset": 0,
      "componentType": 5123,
      "count": 36,
      "type": "SCALAR",
      "min": [0],
      "max": [23]
    },
    {
      "bufferView": 13,
      "byteOffset": 0,
      "componentType": 5126,
      "count": 24,
      "type": "VEC3",
      "min": [-25, -600, -100],
      "max": [25, 600, 100]
    },
    {
      "bufferView": 14,
      "byteOffset": 0,
      "componentType": 5126,
      "count": 24,
      "type": "VEC3",
      "min": [-1, -1, -1],
      "max": [1, 1, 1]
    },
    {
      "bufferView": 15,
      "byteOffset": 0,
      "componentType": 5126,
      "count": 24,
      "type": "VEC2",
      "min": [0, 0],
      "max": [1, 1]
    },
    {
      "bufferView": 16,
      "byteOffset": 0,
      "componentType": 5123,
      "count": 36,
      "type": "SCALAR",
      "min": [0],
      "max": [23]
    },
    {
      "bufferView": 17,
      "byteOffset": 0,
      "componentType": 5126,
      "count": 24,
      "type": "VEC3",
      "min": [-25, -600, -100],
      "max": [25, 600, 100]
    },
    {
      "bufferView": 18,
      "byteOffset": 0,
      "componentType": 5126,
      "count": 24,
      "type": "VEC3",
      "min": [-1, -1, -1],
      "max": [1, 1, 1]
    },
    {
      "bufferView": 19,
      "byteOffset": 0,
      "componentType": 5126,
      "count": 24,
      "type": "VEC2",
      "min": [0, 0],
      "max": [1, 1]
    }
  ],
  "extensions": { "KHR_lights_punctual": { "lights": [] } },
  "extensionsUsed": ["KHR_lights_punctual"]
}
